<svg xmlns="http://www.w3.org/2000/svg" version="1.1" xmlns:xlink="http://www.w3.org/1999/xlink" xmlns:svgjs="http://svgjs.dev/svgjs" width="1000" height="1000" viewBox="0 0 1000 1000"><g transform="matrix(1,0,0,1,-0.14221556886212738,-0.14221556886229791)"><svg viewBox="0 0 334 334" data-background-color="#ffffff" preserveAspectRatio="xMidYMid meet" height="1000" width="1000" xmlns="http://www.w3.org/2000/svg" xmlns:xlink="http://www.w3.org/1999/xlink"><g id="tight-bounds" transform="matrix(1,0,0,1,0.04749999999998522,0.04750000000001364)"><svg viewBox="0 0 333.90454557049503 333.90454557049503" height="333.90454557049503" width="333.90454557049503"><g><svg></svg></g><g><svg viewBox="0 0 333.90454557049503 333.90454557049503" height="333.90454557049503" width="333.90454557049503"><g><path d="M0 166.952c0-92.205 74.747-166.952 166.952-166.952 92.205 0 166.952 74.747 166.953 166.952 0 92.205-74.747 166.952-166.953 166.953-92.205 0-166.952-74.747-166.952-166.953zM166.952 330.191c90.155 0 163.239-73.085 163.239-163.239 0-90.155-73.085-163.239-163.239-163.239-90.155 0-163.239 73.085-163.239 163.239 0 90.155 73.085 163.239 163.239 163.239z" data-fill-palette-color="tertiary" fill="#336a86" stroke="transparent"></path><ellipse rx="160.27418187383762" ry="160.27418187383762" cx="166.95227278524752" cy="166.95227278524752" fill="#336a86" stroke="transparent" stroke-width="0" fill-opacity="1" data-fill-palette-color="tertiary"></ellipse></g><g transform="matrix(1,0,0,1,85.81796027693343,71.17305217166896)"><svg viewBox="0 0 162.26862501662816 191.55844122715712" height="191.55844122715712" width="162.26862501662816"><g><svg viewBox="0 0 162.26862501662816 191.55844122715712" height="191.55844122715712" width="162.26862501662816"><g><svg viewBox="0 0 213.1584412271571 251.63397256678914" height="191.55844122715712" width="162.26862501662816"><g transform="matrix(1,0,0,1,0,151.35455068540733)"><svg viewBox="0 0 213.1584412271571 100.27942188138181" height="100.27942188138181" width="213.1584412271571"><g id="textblocktransform"><svg viewBox="0 0 213.1584412271571 100.27942188138181" height="100.27942188138181" width="213.1584412271571" id="textblock"><g><svg viewBox="0 0 213.1584412271571 54.085928452437656" height="54.085928452437656" width="213.1584412271571"><g transform="matrix(1,0,0,1,0,0)"><svg width="213.1584412271571" viewBox="0.05000000447034836 -32.150001525878906 163.3699951171875 41.45000076293945" height="54.085928452437656" data-palette-color="#ffffff"><path d="M13.92-8.89L13.92-8.89Q14.72-9.03 14.72-9.7 14.72-10.38 14.29-11.22 13.87-12.06 13.04-12.82L13.04-12.82Q10.86-14.77 7.15-14.77L7.15-14.77Q5.32-14.77 3.74-14.16L3.74-14.16Q2.05-15.01 1.05-16.87 0.05-18.73 0.05-20.87L0.05-20.87Q0.05-26.49 4.74-29.54L4.74-29.54Q8.76-32.15 14.67-32.15L14.67-32.15Q19.07-32.15 22.07-31.21 25.07-30.27 26.98-28.81L26.98-28.81Q27.54-27.2 27.54-25.46 27.54-23.73 27.08-22.31 26.61-20.9 25.73-20.04L25.73-20.04Q24.9-20.65 22.73-21.29 20.56-21.92 18.77-21.92 16.99-21.92 16.39-21.7 15.8-21.48 15.8-21.02L15.8-21.02Q15.8-20.8 15.87-20.61L15.87-20.61Q16.72-20.83 18.07-20.83L18.07-20.83Q22.83-20.83 25.83-18.58L25.83-18.58Q29.37-15.89 29.37-10.52L29.37-10.52Q29.37-5.79 25.54-2.66L25.54-2.66Q21.39 0.68 14.38 0.68L14.38 0.68Q10.52 0.68 7.69 0.11 4.86-0.46 2.17-1.9L2.17-1.9Q0.34-4.57 0.34-7.31 0.34-10.06 2.22-11.87 4.1-13.67 6.85-13.67 9.59-13.67 11.34-12.55 13.09-11.43 13.92-8.89ZM45.07 0.76L45.07 0.76Q38.3 0.76 34.4-3L34.4-3Q30.39-6.79 30.39-13.37 30.39-19.95 34.52-23.8L34.52-23.8Q38.33-27.39 44.16-27.39 50-27.39 53.53-24.18 57.05-20.97 57.05-16.28L57.05-16.28Q57.05-12.11 54.15-9.99L54.15-9.99Q51.46-7.98 46.82-7.98L46.82-7.98Q43.36-7.98 40.96-9.42L40.96-9.42Q40.77-9.28 40.77-8.89L40.77-8.89Q40.77-8.15 42.7-7.54L42.7-7.54Q44.63-6.88 47.08-6.88 49.53-6.88 51.55-7.51 53.56-8.13 54.78-8.98L54.78-8.98Q55.37-8.47 55.72-7.09 56.08-5.71 56.08-4.58 56.08-3.44 55.86-2.56L55.86-2.56Q53.95-0.95 51.95-0.27L51.95-0.27Q49.12 0.76 45.07 0.76ZM44.75-15.77L44.75-15.77Q45.97-15.77 45.97-16.7L45.97-16.7Q45.97-17.58 44.68-17.58 43.38-17.58 43.19-16.19L43.19-16.19Q43.87-15.77 44.75-15.77ZM65.47 0.32L65.47 0.32Q62.57 0.32 60.83-0.73L60.83-0.73Q58.91-1.83 58.91-3.98L58.91-3.98 58.91-16.55Q57.47-18.58 57.47-21.55 57.47-24.51 58.91-26.68L58.91-26.68 62.64-26.68Q65.52-26.68 66.77-24.83L66.77-24.83Q66.16-24.15 65.69-23.1 65.23-22.05 65.23-21.59 65.23-21.14 65.46-20.92 65.69-20.7 66.13-20.7L66.13-20.7Q66.99-24.1 69.38-25.68L69.38-25.68Q71.36-27.03 74.26-27.03L74.26-27.03Q77.88-27.03 79.93-25.49L79.93-25.49Q80.66-23.54 80.66-20.72 80.66-17.9 79.54-15.6L79.54-15.6Q78.71-15.16 77.24-14.86 75.78-14.55 74.29-14.55 72.8-14.55 71.61-14.76 70.43-14.97 69.89-15.14L69.89-15.14Q69.7-14.94 69.7-14.58 69.7-14.21 70.17-14.03 70.65-13.84 71.77-13.62L71.77-13.62 71.77-1.37Q69.11 0.32 65.47 0.32ZM95.52-16.33L95.52-17.5Q95.52-18.38 94.87-18.38L94.87-18.38Q94.26-18.38 94.26-17.65L94.26-17.65 94.26-15.14Q94.45-14.97 94.84-14.97 95.23-14.97 95.38-15.26 95.52-15.55 95.52-16.33L95.52-16.33ZM96.43-7.62L96.43-7.62Q94.87-7.62 93.77-7.84L93.77-7.84Q93.69-7.62 93.69-7.42L93.69-7.42Q93.69-6.88 94.46-6.7 95.23-6.52 96.43-6.52L96.43-6.52Q100.24-6.52 102.92-7.64L102.92-7.64Q105.56-6.96 107.02-4.66L107.02-4.66Q108.22-2.78 108.22-0.24L108.22-0.24Q108.22 4.27 104.39 6.79 100.55 9.3 94.51 9.3 88.47 9.3 85.17 7.15L85.17 7.15Q82.12 5.2 82.12 2.08L82.12 2.08Q82.12 0.88 82.68-0.23 83.24-1.34 83.98-1.76L83.98-1.76Q85.2-0.73 87.58-0.1 89.96 0.54 92.47 0.54 94.99 0.54 95.71 0.34 96.43 0.15 96.43-0.34L96.43-0.34Q96.43-0.59 96.28-0.83L96.28-0.83Q95.06-0.56 93.23-0.56L93.23-0.56Q88.52-0.56 85.83-1.9L85.83-1.9Q82.56-3.52 82.56-6.76L82.56-6.76Q82.56-8.03 83.07-9.12 83.59-10.21 84.59-10.74L84.59-10.74Q83.24-11.57 82.3-13.26 81.36-14.94 81.36-17.41L81.36-17.41Q81.36-22.09 84.88-24.8 88.4-27.51 94.01-27.51L94.01-27.51Q96.72-27.51 99.24-26.61L99.24-26.61 99.24-28.32Q100.68-28.88 103.06-28.88 105.44-28.88 106.68-28.08L106.68-28.08Q108.2-27.1 108.2-24.63L108.2-24.63Q108.2-23.27 107.91-22.44 107.63-21.61 107.1-20.7L107.1-20.7Q107.73-19.09 107.73-16.7L107.73-16.7Q107.73-12.38 104.67-10 101.6-7.62 96.43-7.62ZM123.31 0.76L123.31 0.76Q116.54 0.76 112.64-3L112.64-3Q108.63-6.79 108.63-13.37 108.63-19.95 112.76-23.8L112.76-23.8Q116.57-27.39 122.4-27.39 128.24-27.39 131.76-24.18 135.29-20.97 135.29-16.28L135.29-16.28Q135.29-12.11 132.39-9.99L132.39-9.99Q129.7-7.98 125.06-7.98L125.06-7.98Q121.6-7.98 119.2-9.42L119.2-9.42Q119.01-9.28 119.01-8.89L119.01-8.89Q119.01-8.15 120.94-7.54L120.94-7.54Q122.87-6.88 125.32-6.88 127.77-6.88 129.79-7.51 131.8-8.13 133.02-8.98L133.02-8.98Q133.61-8.47 133.96-7.09 134.32-5.71 134.32-4.58 134.32-3.44 134.1-2.56L134.1-2.56Q132.19-0.95 130.19-0.27L130.19-0.27Q127.36 0.76 123.31 0.76ZM122.99-15.77L122.99-15.77Q124.21-15.77 124.21-16.7L124.21-16.7Q124.21-17.58 122.91-17.58 121.62-17.58 121.43-16.19L121.43-16.19Q122.11-15.77 122.99-15.77ZM148.72-12.33L148.72-12.33 148.72-11.77Q148.72-11.38 148.74-11.21L148.74-11.21Q148.99-11.08 149.28-11.08L149.28-11.08Q149.99-11.08 149.99-12.16L149.99-12.16Q149.99-15.75 150.39-19.62 150.79-23.49 151.26-25.59L151.26-25.59Q153.23-27.03 156.53-27.03 159.83-27.03 161.62-25.74 163.42-24.46 163.42-22.66L163.42-22.66Q163.42-21.9 162.51-16.41L162.51-16.41Q161.51-10.82 159.95-4.64L159.95-4.64Q159.63-3.39 158.81-1.15 158 1.1 157.07 2.59L157.07 2.59Q154.16 7.2 149.89 8.3L149.89 8.3Q147.89 8.81 145.86 8.81L145.86 8.81Q141.93 8.81 139.78 6.86L139.78 6.86Q137.8 5.1 137.8 2.5 137.8-0.1 139.34-2.39L139.34-2.39Q139.71-2.49 140.69-2.49 141.66-2.49 143.13-2.25L143.13-2.25Q147.18-1.49 147.25-1.49L147.25-1.49Q147.42-1.46 147.63-1.43 147.84-1.39 148.18-1.39 148.52-1.39 148.77-1.59 149.01-1.78 149.01-2.37L149.01-2.37 143.25-3.47Q141.13-4.35 139.56-7.15L139.56-7.15Q137.63-10.62 136.95-16.55L136.95-16.55Q135.34-18.65 135.34-21.58 135.34-24.51 136.8-26.68L136.8-26.68 143.08-26.68Q146.23-26.68 147.79-24.88L147.79-24.88Q148.94-23.54 149.26-20.95L149.26-20.95Q148.72-16.7 148.72-12.33Z" opacity="1" transform="matrix(1,0,0,1,0,0)" fill="#ffffff" class="undefined-text-0" data-fill-palette-color="quaternary" id="text-0"></path></svg></g></svg></g><g transform="matrix(1,0,0,1,0,66.85431809777533)"><svg viewBox="0 0 213.1584412271571 33.425103783606474" height="33.425103783606474" width="213.1584412271571"><g transform="matrix(1,0,0,1,0,0)"><svg width="213.1584412271571" viewBox="3.5 -36 229.5800018310547 36" height="33.425103783606474" data-palette-color="#ffffff"><path d="M10.75-3.75L32.25-3.75 32.25 0 3.5 0 3.5-35 10.75-35 10.75-3.75ZM47.01-25.5L47.01 0 40.01 0 40.01-25.5 47.01-25.5ZM47.26-32.25L47.26-32.25Q47.26-30.75 46.24-29.63 45.21-28.5 43.51-28.5L43.51-28.5Q41.81-28.5 40.79-29.63 39.76-30.75 39.76-32.25L39.76-32.25Q39.76-33.75 40.79-34.88 41.81-36 43.51-36L43.51-36Q45.16-36 46.21-34.88 47.26-33.75 47.26-32.25ZM84.77-15.75L84.77 0 77.77 0 77.77-15.75Q77.77-19.35 75.97-20.93 74.17-22.5 70.77-22.5L70.77-22.5 64.27-22.5 64.27 0 57.27 0 57.27-35 64.27-35 64.27-26 70.77-26Q77.92-26 81.35-23.43 84.77-20.85 84.77-15.75L84.77-15.75ZM100.28-8.25L100.28-8.25Q100.28-3.5 106.03-3.5L106.03-3.5 113.03-3.5 113.03-13 106.03-13Q100.28-13 100.28-8.25ZM106.03-16.5L113.03-16.5Q113.03-20.1 111.16-21.8 109.28-23.5 106.28-23.5L106.28-23.5Q104.03-23.5 101.88-22.83 99.73-22.15 98.03-21L98.03-21 96.28-24Q97.38-24.75 98.71-25.3 100.03-25.85 101.43-26.23 102.83-26.6 104.21-26.8 105.58-27 106.78-27L106.78-27Q109.98-27 112.43-26.25 114.88-25.5 116.58-24.1 118.28-22.7 119.16-20.78 120.03-18.85 120.03-16.5L120.03-16.5 120.03 0 106.03 0Q99.23 0 96.01-2.05 92.78-4.1 92.78-8.25L92.78-8.25Q92.78-12.4 96.01-14.45 99.23-16.5 106.03-16.5L106.03-16.5ZM163.3-11.5L163.3-8 159.05-8 159.05 0 151.8 0 151.8-8 127.3-8 127.3-11.95 150.05-35 159.05-35 159.05-11.5 163.3-11.5ZM134.55-11.5L151.8-11.5 151.8-28.5 151.3-28.5 134.55-11.5ZM178.06-25.5L178.06 0 171.06 0 171.06-25.5 178.06-25.5ZM178.31-32.25L178.31-32.25Q178.31-30.75 177.28-29.63 176.26-28.5 174.56-28.5L174.56-28.5Q172.86-28.5 171.83-29.63 170.81-30.75 170.81-32.25L170.81-32.25Q170.81-33.75 171.83-34.88 172.86-36 174.56-36L174.56-36Q176.21-36 177.26-34.88 178.31-33.75 178.31-32.25ZM215.82-15.75L215.82 0 208.82 0 208.82-15.75Q208.82-19.35 207.02-20.93 205.22-22.5 201.82-22.5L201.82-22.5 195.32-22.5 195.32 0 188.32 0 188.32-26 201.82-26Q208.97-26 212.39-23.43 215.82-20.85 215.82-15.75L215.82-15.75ZM232.83-25.5L232.83 0 225.83 0 225.83-25.5 232.83-25.5ZM233.08-32.25L233.08-32.25Q233.08-30.75 232.05-29.63 231.03-28.5 229.33-28.5L229.33-28.5Q227.63-28.5 226.6-29.63 225.58-30.75 225.58-32.25L225.58-32.25Q225.58-33.75 226.6-34.88 227.63-36 229.33-36L229.33-36Q230.98-36 232.03-34.88 233.08-33.75 233.08-32.25Z" opacity="1" transform="matrix(1,0,0,1,0,0)" fill="#ffffff" class="undefined-text-1" data-fill-palette-color="quaternary" id="text-1"></path></svg></g></svg></g></svg></g></svg></g><g transform="matrix(1,0,0,1,52.96144286221684,0)"><svg viewBox="0 0 107.23555550272343 138.58616104006967" height="138.58616104006967" width="107.23555550272343"><g><svg xmlns="http://www.w3.org/2000/svg" xmlns:xlink="http://www.w3.org/1999/xlink" version="1.1" x="0" y="0" viewBox="12.982999801635742 1 75.68599700927734 97.81300354003906" enable-background="new 0 0 100 100" xml:space="preserve" height="138.58616104006967" width="107.23555550272343" class="icon-icon-0" data-fill-palette-color="quaternary" id="icon-0"><g fill="#ffffff" data-fill-palette-color="quaternary"><polygon fill-rule="evenodd" clip-rule="evenodd" points="12.983,10.59 30.001,98.813 24.129,39.764 53.15,37.872 53.096,27.989    64.549,1 53.622,18.977  " fill="#ffffff" data-fill-palette-color="quaternary"></polygon><polygon fill-rule="evenodd" clip-rule="evenodd" points="59.389,54.548 64.549,1.007 55.809,40.723 36.197,41.768 37.767,62.23    30.001,98.813 42.058,58.914  " fill="#ffffff" data-fill-palette-color="quaternary"></polygon><polygon fill-rule="evenodd" clip-rule="evenodd" points="62.8,67.182 63.349,56.729 47.37,60.484 47.338,72.281 30.001,98.813    51.681,71.197  " fill="#ffffff" data-fill-palette-color="quaternary"></polygon><polygon fill-rule="evenodd" clip-rule="evenodd" points="65.711,62.394 80.552,57.663 82.061,45.131 66.162,47.226  " fill="#ffffff" data-fill-palette-color="quaternary"></polygon><polygon fill-rule="evenodd" clip-rule="evenodd" points="72.07,44.502 83.058,43.085 84.639,32.807 76.56,32.434 64.549,1    72.979,31.967  " fill="#ffffff" data-fill-palette-color="quaternary"></polygon><polygon fill-rule="evenodd" clip-rule="evenodd" points="87.413,31.294 88.669,21.788 79.125,19.094 64.549,1 79.032,23.437    78.61,30.437  " fill="#ffffff" data-fill-palette-color="quaternary"></polygon></g></svg></g></svg></g><g></g></svg></g></svg></g></svg></g></svg></g><defs></defs></svg><rect width="333.90454557049503" height="333.90454557049503" fill="none" stroke="none" visibility="hidden"></rect></g></svg></g></svg>